<svg xmlns="http://www.w3.org/2000/svg" viewBox="0 0 400 420" fill="none">
  <defs>
    <radialGradient id="purpleGrad" cx="50%" cy="45%" r="55%">
      <stop offset="0%" stop-color="#A855F7"/>
      <stop offset="100%" stop-color="#7C3AED"/>
    </radialGradient>
    <radialGradient id="orangeGrad" cx="40%" cy="50%" r="55%">
      <stop offset="0%" stop-color="#FBBF24"/>
      <stop offset="100%" stop-color="#F59E0B"/>
    </radialGradient>
    <radialGradient id="blueGrad" cx="50%" cy="40%" r="55%">
      <stop offset="0%" stop-color="#60A5FA"/>
      <stop offset="100%" stop-color="#3B82F6"/>
    </radialGradient>
    <filter id="spiralGlow" x="-20%" y="-20%" width="140%" height="140%">
      <feGaussianBlur stdDeviation="1.5" result="glow"/>
      <feMerge>
        <feMergeNode in="glow"/>
        <feMergeNode in="SourceGraphic"/>
      </feMerge>
    </filter>
  </defs>

  <!-- Blue circle (bottom-left, smaller, partially behind purple) -->
  <circle cx="152" cy="205" r="48" fill="url(#blueGrad)"/>
  
  <!-- Orange circle (upper-right, overlapping purple) -->
  <circle cx="260" cy="120" r="60" fill="url(#orangeGrad)"/>
  
  <!-- Purple main circle (center, dominant) -->
  <circle cx="200" cy="165" r="90" fill="url(#purpleGrad)"/>

  <!-- Small decorative dots (magenta/pink) -->
  <circle cx="140" cy="100" r="7" fill="#EC4899"/>
  <circle cx="285" cy="82" r="5" fill="#EC4899"/>
  <circle cx="300" cy="168" r="8" fill="#EC4899"/>
  <circle cx="260" cy="232" r="6" fill="#EC4899"/>
  <circle cx="148" cy="250" r="4.5" fill="#F472B6"/>

  <!-- Mathematically-generated Archimedean Spiral -->
  <g filter="url(#spiralGlow)" transform="translate(200, 165)">
    <path d="M 0.0,-6.0 L 0.5,-6.2 L 1.1,-6.3 L 1.7,-6.4 L 2.4,-6.5 L 3.0,-6.4 L 3.7,-6.3 L 4.4,-6.2 L 5.0,-5.9 L 5.7,-5.6 L 6.3,-5.3 L 7.0,-4.8 L 7.6,-4.3 L 8.1,-3.7 L 8.6,-3.0 L 9.1,-2.3 L 9.5,-1.6 L 9.8,-0.7 L 10.0,0.1 L 10.2,1.0 L 10.3,2.0 L 10.3,2.9 L 10.2,3.9 L 10.0,4.9 L 9.8,5.9 L 9.4,6.8 L 8.9,7.8 L 8.4,8.7 L 7.7,9.6 L 7.0,10.4 L 6.1,11.1 L 5.2,11.8 L 4.2,12.5 L 3.2,13.0 L 2.0,13.5 L 0.9,13.8 L -0.4,14.1 L -1.6,14.2 L -2.9,14.2 L -4.2,14.1 L -5.5,13.9 L -6.8,13.6 L -8.1,13.1 L -9.3,12.5 L -10.6,11.8 L -11.7,11.0 L -12.8,10.1 L -13.8,9.0 L -14.8,7.9 L -15.6,6.6 L -16.4,5.3 L -17.0,3.9 L -17.5,2.4 L -17.8,0.9 L -18.1,-0.7 L -18.2,-2.3 L -18.1,-3.9 L -17.9,-5.6 L -17.6,-7.2 L -17.1,-8.8 L -16.4,-10.4 L -15.6,-12.0 L -14.7,-13.4 L -13.6,-14.8 L -12.4,-16.1 L -11.0,-17.4 L -9.6,-18.5 L -8.0,-19.4 L -6.3,-20.3 L -4.5,-21.0 L -2.7,-21.5 L -0.8,-21.9 L 1.1,-22.1 L 3.1,-22.1 L 5.1,-22.0 L 7.0,-21.7 L 9.0,-21.2 L 10.9,-20.5 L 12.8,-19.7 L 14.6,-18.6 L 16.4,-17.4 L 18.0,-16.1 L 19.5,-14.6 L 20.9,-12.9 L 22.2,-11.1 L 23.3,-9.2 L 24.2,-7.2 L 25.0,-5.1 L 25.5,-2.9 L 25.9,-0.7 L 26.1,1.6 L 26.1,4.0 L 25.9,6.3 L 25.4,8.6 L 24.8,10.9 L 23.9,13.1 L 22.8,15.3 L 21.6,17.4 L 20.1,19.4 L 18.5,21.3 L 16.7,23.0 L 14.7,24.5 L 12.6,25.9 L 10.4,27.2 L 8.0,28.2 L 5.5,29.0 L 3.0,29.6 L 0.4,30.0 L -2.3,30.1 L -4.9,30.0 L -7.6,29.7 L -10.3,29.1 L -12.9,28.3 L -15.4,27.2 L -17.9,26.0 L -20.2,24.5 L -22.5,22.8 L -24.6,20.8 L -26.5,18.7 L -28.2,16.4 L -29.8,14.0 L -31.1,11.4 L -32.2,8.7 L -33.0,5.9 L -33.6,3.0 L -34.0,0.0 L -34.1,-3.0 L -33.9,-6.0 L -33.5,-9.0 L -32.8,-12.0 L -31.8,-15.0 L -30.5,-17.8 L -29.0,-20.5 L -27.3,-23.2 L -25.3,-25.6 L -23.1,-27.9 L -20.7,-30.0 L -18.1,-31.9 L -15.3,-33.6 L -12.4,-35.0 L -9.3,-36.2 L -6.1,-37.1 L -2.8,-37.7 L 0.5,-38.0 L 3.8,-38.1 L 7.2,-37.8 L 10.6,-37.2 L 13.9,-36.4 L 17.1,-35.2 L 20.3,-33.8 L 23.3,-32.0 L 26.1,-30.0 L 28.8,-27.8 L 31.4,-25.3 L 33.6,-22.6 L 35.7,-19.6 L 37.5,-16.5 L 39.0,-13.2 L 40.2,-9.8 L 41.1,-6.3 L 41.8,-2.6 L 42.1,1.1 L 42.0,4.8 L 41.7,8.5 L 41.0,12.2 L 39.9,15.8 L 38.6,19.4 L 36.9,22.8 L 35.0,26.1 L 32.7,29.2 L 30.2,32.1 L 27.4,34.8 L 24.3,37.3 L 21.1,39.5 L 17.6,41.4 L 14.0,43.0 L 10.2,44.3 L 6.3,45.2 L 2.3,45.8 L -1.7,46.1 L -5.8,46.0 L -9.9,45.5 L -13.9,44.7 L -17.8,43.5 L -21.7,41.9 L -25.4,40.1 L -29.0,37.8 L -32.3,35.3 L -35.5,32.5 L -38.4,29.4 L -41.0,26.0 L -43.3,22.4 L -45.3,18.6 L -47.0,14.6 L -48.3,10.5 L -49.3,6.2 L -49.9,1.9 L -50.1,-2.5 L -49.9,-6.9 L -49.3,-11.3 L -48.3,-15.7 L -47.0,-20.0 L -45.2,-24.1 L -43.1,-28.1 L -40.6,-31.9 L -37.8,-35.5 L -34.7,-38.9 L -31.3,-42.0 L -27.6,-44.8 L -23.7,-47.2 L -19.5,-49.3 L -15.2,-51.1 L -10.7,-52.4 L -6.1,-53.4 L -1.4,-53.9 L 3.4,-54.1 L 8.2,-53.8 L 12.9,-53.1 L 17.6,-51.9 L 22.2,-50.4 L 26.6,-48.4 L 30.9,-46.1 L 35.0,-43.4 L 38.8,-40.3 L 42.4,-36.9 L 45.6,-33.2 L 48.6,-29.1 L 51.1,-24.8 L 53.3,-20.3 L 55.1,-15.6 L 56.5,-10.8 L 57.5,-5.8 L 58.0,-0.7 L 58.0,4.4 L 57.6,9.5 L 56.8,14.6 L 55.5,19.6 L 53.8,24.5 L 51.6,29.2 L 49.0,33.8 L 46.0,38.1 L 42.7,42.1 L 39.0,45.9 L 34.9,49.3 L 30.5,52.4 L 25.9,55.1 L 21.1,57.4 L 16.0,59.2 L 10.8,60.6 L 5.4,61.5 L -0.0,62.0"
      stroke="white" stroke-width="5" stroke-linecap="round" fill="none"/>
  </g>

  <!-- "HypnoBar" text using Playfair Display / serif -->
  <text x="200" y="330" text-anchor="middle" 
    font-family="'Playfair Display', 'Georgia', serif" 
    font-size="60" font-weight="700" fill="white" letter-spacing="1">
    Hypno<tspan fill="#EC4899">Bar</tspan>
  </text>
</svg>
